<svg width="2387" height="663" viewBox="0 0 2387 663" fill="none" xmlns="http://www.w3.org/2000/svg">
<g clip-path="url(#clip0_2006_2)">
<rect width="2387" height="450" fill="#1D4ED8"/>
<path d="M0 5.00004C0 -271.142 223.858 -495 500 -495H1887C2163.14 -495 2387 -271.142 2387 5V445C2387 721.142 2163.14 945 1887 945H500C223.858 945 0 721.142 0 445V5.00004Z" fill="url(#paint0_radial_2006_2)"/>
<mask id="path-2-outside-1_2006_2" maskUnits="userSpaceOnUse" x="735" y="192" width="914" height="73" fill="black">
<rect fill="white" x="735" y="192" width="914" height="73"/>
<path d="M760.184 261C752.856 261 747.432 259.256 743.912 255.768C740.424 252.248 738.68 246.824 738.68 239.496V217.416C738.68 210.024 740.424 204.584 743.912 201.096C747.4 197.576 752.792 195.848 760.088 195.912H771.704C777.72 195.912 782.312 197.16 785.48 199.656C788.648 202.12 790.488 206.024 791 211.368C791.192 212.712 790.936 213.736 790.232 214.44C789.528 215.144 788.504 215.496 787.16 215.496C784.728 215.496 783.32 214.152 782.936 211.464C782.616 208.52 781.592 206.536 779.864 205.512C778.168 204.488 775.448 203.976 771.704 203.976H760.088C756.696 203.944 754.024 204.328 752.072 205.128C750.152 205.928 748.776 207.32 747.944 209.304C747.144 211.256 746.744 213.96 746.744 217.416V239.496C746.744 242.92 747.144 245.608 747.944 247.56C748.776 249.512 750.168 250.904 752.12 251.736C754.072 252.536 756.76 252.936 760.184 252.936H771.704C775.448 252.936 778.168 252.424 779.864 251.4C781.592 250.344 782.616 248.36 782.936 245.448C783.32 242.76 784.728 241.416 787.16 241.416C788.504 241.416 789.528 241.768 790.232 242.472C790.936 243.176 791.192 244.2 791 245.544C790.488 250.92 788.648 254.84 785.48 257.304C782.312 259.768 777.72 261 771.704 261H760.184ZM827.028 261C819.7 261 814.276 259.256 810.756 255.768C807.268 252.248 805.524 246.824 805.524 239.496V217.32C805.524 209.928 807.284 204.504 810.804 201.048C814.324 197.56 819.732 195.848 827.028 195.912H838.548C845.908 195.912 851.332 197.656 854.82 201.144C858.308 204.632 860.052 210.056 860.052 217.416V239.496C860.052 246.824 858.308 252.248 854.82 255.768C851.332 259.256 845.908 261 838.548 261H827.028ZM827.028 252.936H838.548C841.972 252.936 844.66 252.536 846.612 251.736C848.564 250.904 849.94 249.512 850.74 247.56C851.572 245.608 851.988 242.92 851.988 239.496V217.416C851.988 214.024 851.572 211.352 850.74 209.4C849.94 207.448 848.564 206.056 846.612 205.224C844.66 204.392 841.972 203.976 838.548 203.976H827.028C823.636 203.944 820.964 204.328 819.012 205.128C817.06 205.928 815.668 207.304 814.836 209.256C814.004 211.208 813.588 213.896 813.588 217.32V239.496C813.588 242.92 813.988 245.608 814.788 247.56C815.62 249.512 817.012 250.904 818.964 251.736C820.916 252.536 823.604 252.936 827.028 252.936ZM881.704 261C879.016 261 877.672 259.656 877.672 256.968V199.944C877.672 197.256 879.016 195.912 881.704 195.912H904.84C913.192 195.912 919.336 197.896 923.272 201.864C927.24 205.8 929.224 211.944 929.224 220.296V236.616C929.224 244.968 927.256 251.128 923.32 255.096C919.416 259.032 913.256 261 904.84 261H881.704ZM885.736 252.936H904.84C908.936 252.936 912.168 252.44 914.536 251.448C916.936 250.424 918.632 248.728 919.624 246.36C920.648 243.96 921.16 240.712 921.16 236.616V220.296C921.16 216.232 920.648 213.016 919.624 210.648C918.632 208.248 916.936 206.536 914.536 205.512C912.168 204.488 908.936 203.976 904.84 203.976H885.736V252.936ZM950.891 261C948.203 261 946.859 259.656 946.859 256.968V199.944C946.859 197.256 948.203 195.912 950.891 195.912H985.355C988.043 195.912 989.387 197.256 989.387 199.944C989.387 202.632 988.043 203.976 985.355 203.976H954.923V224.136H974.027C976.715 224.136 978.059 225.48 978.059 228.168C978.059 230.856 976.715 232.2 974.027 232.2H954.923V252.936H985.355C988.043 252.936 989.387 254.28 989.387 256.968C989.387 259.656 988.043 261 985.355 261H950.891ZM1048.86 261C1047.1 261 1045.85 259.848 1045.11 257.544L1027.35 201.288C1026.97 200.072 1027.15 198.856 1027.88 197.64C1028.65 196.424 1029.75 195.816 1031.19 195.816C1031.96 195.816 1032.7 196.072 1033.4 196.584C1034.11 197.064 1034.62 197.832 1034.94 198.888L1050.59 248.712H1048.47L1063.35 199.368C1063.71 198.216 1064.3 197.352 1065.13 196.776C1065.99 196.2 1066.87 195.912 1067.77 195.912C1068.73 195.912 1069.66 196.2 1070.55 196.776C1071.45 197.352 1072.06 198.216 1072.38 199.368L1087.26 248.712H1085.15L1100.79 198.888C1101.15 197.832 1101.64 197.08 1102.28 196.632C1102.95 196.152 1103.67 195.912 1104.44 195.912C1105.85 195.912 1106.97 196.456 1107.8 197.544C1108.63 198.632 1108.83 199.88 1108.38 201.288L1090.62 257.544C1089.85 259.848 1088.44 261 1086.39 261H1086.2C1084.06 261 1082.65 259.848 1081.98 257.544L1066.52 207.528H1068.63L1053.08 257.544C1052.76 258.696 1052.28 259.56 1051.64 260.136C1051.03 260.712 1050.11 261 1048.86 261ZM1124.89 261C1123.52 261 1122.49 260.68 1121.82 260.04C1121.18 259.368 1120.86 258.344 1120.86 256.968V200.04C1120.86 198.632 1121.18 197.608 1121.82 196.968C1122.49 196.328 1123.52 196.008 1124.89 196.008C1126.3 196.008 1127.32 196.328 1127.96 196.968C1128.6 197.608 1128.92 198.632 1128.92 200.04V256.968C1128.92 258.344 1128.6 259.368 1127.96 260.04C1127.32 260.68 1126.3 261 1124.89 261ZM1168.38 261C1167.03 261 1166.03 260.664 1165.35 259.992C1164.68 259.32 1164.35 258.312 1164.35 256.968V204.072H1145.72C1144.38 204.072 1143.37 203.736 1142.7 203.064C1142.03 202.392 1141.69 201.384 1141.69 200.04C1141.69 198.696 1142.03 197.688 1142.7 197.016C1143.37 196.344 1144.38 196.008 1145.72 196.008H1191.03C1192.38 196.008 1193.39 196.344 1194.06 197.016C1194.73 197.688 1195.07 198.696 1195.07 200.04C1195.07 201.384 1194.73 202.392 1194.06 203.064C1193.39 203.736 1192.38 204.072 1191.03 204.072H1172.41V256.968C1172.41 258.248 1172.06 259.24 1171.35 259.944C1170.68 260.648 1169.69 261 1168.38 261ZM1211.89 261C1210.84 261 1209.89 260.6 1209.06 259.8C1208.26 258.968 1207.86 258.024 1207.86 256.968V199.944C1207.86 198.888 1208.26 197.96 1209.06 197.16C1209.89 196.328 1210.84 195.912 1211.89 195.912C1212.95 195.912 1213.88 196.328 1214.68 197.16C1215.51 197.96 1215.92 198.888 1215.92 199.944V224.04H1255.09V199.944C1255.09 198.888 1255.49 197.96 1256.29 197.16C1257.09 196.328 1258.04 195.912 1259.12 195.912C1260.18 195.912 1261.11 196.328 1261.91 197.16C1262.74 197.96 1263.16 198.888 1263.16 199.944V256.968C1263.16 258.024 1262.74 258.968 1261.91 259.8C1261.11 260.6 1260.18 261 1259.12 261C1258.04 261 1257.09 260.6 1256.29 259.8C1255.49 258.968 1255.09 258.024 1255.09 256.968V232.104H1215.92V256.968C1215.92 258.024 1215.51 258.968 1214.68 259.8C1213.88 260.6 1212.95 261 1211.89 261ZM1317.36 261C1314.67 261 1313.33 259.656 1313.33 256.968V199.944C1313.33 197.256 1314.67 195.912 1317.36 195.912H1340.5C1348.85 195.912 1354.99 197.896 1358.93 201.864C1362.9 205.8 1364.88 211.944 1364.88 220.296V236.616C1364.88 244.968 1362.91 251.128 1358.98 255.096C1355.07 259.032 1348.91 261 1340.5 261H1317.36ZM1321.39 252.936H1340.5C1344.59 252.936 1347.82 252.44 1350.19 251.448C1352.59 250.424 1354.29 248.728 1355.28 246.36C1356.3 243.96 1356.82 240.712 1356.82 236.616V220.296C1356.82 216.232 1356.3 213.016 1355.28 210.648C1354.29 208.248 1352.59 206.536 1350.19 205.512C1347.82 204.488 1344.59 203.976 1340.5 203.976H1321.39V252.936ZM1386.55 261C1383.86 261 1382.52 259.656 1382.52 256.968V199.944C1382.52 197.256 1383.86 195.912 1386.55 195.912C1388.31 195.912 1389.78 196.776 1390.96 198.504L1413.62 232.584L1411.89 232.872L1434.74 198.504C1435.83 196.776 1437.46 195.912 1439.64 195.912C1441.81 195.912 1442.9 197.256 1442.9 199.944V256.968C1442.9 259.656 1441.56 261 1438.87 261C1436.18 261 1434.84 259.656 1434.84 256.968V208.008L1437.33 208.872L1417.17 238.536C1415.99 240.264 1414.36 241.128 1412.28 241.128C1410.84 241.128 1409.52 240.264 1408.34 238.536L1388.18 208.872L1390.58 209.544V256.968C1390.58 259.656 1389.24 261 1386.55 261ZM1466.89 261C1465.52 261 1464.49 260.68 1463.82 260.04C1463.18 259.368 1462.86 258.344 1462.86 256.968V200.04C1462.86 198.632 1463.18 197.608 1463.82 196.968C1464.49 196.328 1465.52 196.008 1466.89 196.008C1468.3 196.008 1469.32 196.328 1469.96 196.968C1470.6 197.608 1470.92 198.632 1470.92 200.04V256.968C1470.92 258.344 1470.6 259.368 1469.96 260.04C1469.32 260.68 1468.3 261 1466.89 261ZM1510.38 261C1509.03 261 1508.03 260.664 1507.35 259.992C1506.68 259.32 1506.35 258.312 1506.35 256.968V204.072H1487.72C1486.38 204.072 1485.37 203.736 1484.7 203.064C1484.03 202.392 1483.69 201.384 1483.69 200.04C1483.69 198.696 1484.03 197.688 1484.7 197.016C1485.37 196.344 1486.38 196.008 1487.72 196.008H1533.03C1534.38 196.008 1535.39 196.344 1536.06 197.016C1536.73 197.688 1537.07 198.696 1537.07 200.04C1537.07 201.384 1536.73 202.392 1536.06 203.064C1535.39 203.736 1534.38 204.072 1533.03 204.072H1514.41V256.968C1514.41 258.248 1514.06 259.24 1513.35 259.944C1512.68 260.648 1511.69 261 1510.38 261ZM1591.72 261.192C1590.66 261.864 1589.65 262.072 1588.69 261.816C1587.73 261.56 1586.92 260.904 1586.24 259.848L1571.36 235.08H1557.92V256.968C1557.92 259.656 1556.58 261 1553.89 261C1551.2 261 1549.86 259.656 1549.86 256.968V199.944C1549.86 197.256 1551.2 195.912 1553.89 195.912H1576.36C1582.21 195.912 1586.69 197.48 1589.8 200.616C1592.93 203.72 1594.5 208.2 1594.5 214.056V216.936C1594.5 222.024 1593.32 226.088 1590.95 229.128C1588.58 232.136 1585.16 234.008 1580.68 234.744L1593.25 255.72C1594.47 257.96 1593.96 259.784 1591.72 261.192ZM1557.92 227.016H1576.36C1580 227.016 1582.6 226.248 1584.13 224.712C1585.67 223.176 1586.44 220.584 1586.44 216.936V214.056C1586.44 210.44 1585.67 207.864 1584.13 206.328C1582.6 204.76 1580 203.976 1576.36 203.976H1557.92V227.016ZM1613.89 261C1612.52 261 1611.49 260.68 1610.82 260.04C1610.18 259.368 1609.86 258.344 1609.86 256.968V200.04C1609.86 198.632 1610.18 197.608 1610.82 196.968C1611.49 196.328 1612.52 196.008 1613.89 196.008C1615.3 196.008 1616.32 196.328 1616.96 196.968C1617.6 197.608 1617.92 198.632 1617.92 200.04V256.968C1617.92 258.344 1617.6 259.368 1616.96 260.04C1616.32 260.68 1615.3 261 1613.89 261ZM1641.92 261C1640.55 261 1639.52 260.68 1638.85 260.04C1638.21 259.368 1637.89 258.344 1637.89 256.968V200.04C1637.89 198.632 1638.21 197.608 1638.85 196.968C1639.52 196.328 1640.55 196.008 1641.92 196.008C1643.33 196.008 1644.35 196.328 1644.99 196.968C1645.63 197.608 1645.95 198.632 1645.95 200.04V256.968C1645.95 258.344 1645.63 259.368 1644.99 260.04C1644.35 260.68 1643.33 261 1641.92 261Z"/>
</mask>
<path d="M760.184 261C752.856 261 747.432 259.256 743.912 255.768C740.424 252.248 738.68 246.824 738.68 239.496V217.416C738.68 210.024 740.424 204.584 743.912 201.096C747.4 197.576 752.792 195.848 760.088 195.912H771.704C777.72 195.912 782.312 197.16 785.48 199.656C788.648 202.12 790.488 206.024 791 211.368C791.192 212.712 790.936 213.736 790.232 214.44C789.528 215.144 788.504 215.496 787.16 215.496C784.728 215.496 783.32 214.152 782.936 211.464C782.616 208.52 781.592 206.536 779.864 205.512C778.168 204.488 775.448 203.976 771.704 203.976H760.088C756.696 203.944 754.024 204.328 752.072 205.128C750.152 205.928 748.776 207.32 747.944 209.304C747.144 211.256 746.744 213.96 746.744 217.416V239.496C746.744 242.92 747.144 245.608 747.944 247.56C748.776 249.512 750.168 250.904 752.12 251.736C754.072 252.536 756.76 252.936 760.184 252.936H771.704C775.448 252.936 778.168 252.424 779.864 251.4C781.592 250.344 782.616 248.36 782.936 245.448C783.32 242.76 784.728 241.416 787.16 241.416C788.504 241.416 789.528 241.768 790.232 242.472C790.936 243.176 791.192 244.2 791 245.544C790.488 250.92 788.648 254.84 785.48 257.304C782.312 259.768 777.72 261 771.704 261H760.184ZM827.028 261C819.7 261 814.276 259.256 810.756 255.768C807.268 252.248 805.524 246.824 805.524 239.496V217.32C805.524 209.928 807.284 204.504 810.804 201.048C814.324 197.56 819.732 195.848 827.028 195.912H838.548C845.908 195.912 851.332 197.656 854.82 201.144C858.308 204.632 860.052 210.056 860.052 217.416V239.496C860.052 246.824 858.308 252.248 854.82 255.768C851.332 259.256 845.908 261 838.548 261H827.028ZM827.028 252.936H838.548C841.972 252.936 844.66 252.536 846.612 251.736C848.564 250.904 849.94 249.512 850.74 247.56C851.572 245.608 851.988 242.92 851.988 239.496V217.416C851.988 214.024 851.572 211.352 850.74 209.4C849.94 207.448 848.564 206.056 846.612 205.224C844.66 204.392 841.972 203.976 838.548 203.976H827.028C823.636 203.944 820.964 204.328 819.012 205.128C817.06 205.928 815.668 207.304 814.836 209.256C814.004 211.208 813.588 213.896 813.588 217.32V239.496C813.588 242.92 813.988 245.608 814.788 247.56C815.62 249.512 817.012 250.904 818.964 251.736C820.916 252.536 823.604 252.936 827.028 252.936ZM881.704 261C879.016 261 877.672 259.656 877.672 256.968V199.944C877.672 197.256 879.016 195.912 881.704 195.912H904.84C913.192 195.912 919.336 197.896 923.272 201.864C927.24 205.8 929.224 211.944 929.224 220.296V236.616C929.224 244.968 927.256 251.128 923.32 255.096C919.416 259.032 913.256 261 904.84 261H881.704ZM885.736 252.936H904.84C908.936 252.936 912.168 252.44 914.536 251.448C916.936 250.424 918.632 248.728 919.624 246.36C920.648 243.96 921.16 240.712 921.16 236.616V220.296C921.16 216.232 920.648 213.016 919.624 210.648C918.632 208.248 916.936 206.536 914.536 205.512C912.168 204.488 908.936 203.976 904.84 203.976H885.736V252.936ZM950.891 261C948.203 261 946.859 259.656 946.859 256.968V199.944C946.859 197.256 948.203 195.912 950.891 195.912H985.355C988.043 195.912 989.387 197.256 989.387 199.944C989.387 202.632 988.043 203.976 985.355 203.976H954.923V224.136H974.027C976.715 224.136 978.059 225.48 978.059 228.168C978.059 230.856 976.715 232.2 974.027 232.2H954.923V252.936H985.355C988.043 252.936 989.387 254.28 989.387 256.968C989.387 259.656 988.043 261 985.355 261H950.891ZM1048.86 261C1047.1 261 1045.85 259.848 1045.11 257.544L1027.35 201.288C1026.97 200.072 1027.15 198.856 1027.88 197.64C1028.65 196.424 1029.75 195.816 1031.19 195.816C1031.96 195.816 1032.7 196.072 1033.4 196.584C1034.11 197.064 1034.62 197.832 1034.94 198.888L1050.59 248.712H1048.47L1063.35 199.368C1063.71 198.216 1064.3 197.352 1065.13 196.776C1065.99 196.2 1066.87 195.912 1067.77 195.912C1068.73 195.912 1069.66 196.2 1070.55 196.776C1071.45 197.352 1072.06 198.216 1072.38 199.368L1087.26 248.712H1085.15L1100.79 198.888C1101.15 197.832 1101.64 197.08 1102.28 196.632C1102.95 196.152 1103.67 195.912 1104.44 195.912C1105.85 195.912 1106.97 196.456 1107.8 197.544C1108.63 198.632 1108.83 199.88 1108.38 201.288L1090.62 257.544C1089.85 259.848 1088.44 261 1086.39 261H1086.2C1084.06 261 1082.65 259.848 1081.98 257.544L1066.52 207.528H1068.63L1053.08 257.544C1052.76 258.696 1052.28 259.56 1051.64 260.136C1051.03 260.712 1050.11 261 1048.86 261ZM1124.89 261C1123.52 261 1122.49 260.68 1121.82 260.04C1121.18 259.368 1120.86 258.344 1120.86 256.968V200.04C1120.86 198.632 1121.18 197.608 1121.82 196.968C1122.49 196.328 1123.52 196.008 1124.89 196.008C1126.3 196.008 1127.32 196.328 1127.96 196.968C1128.6 197.608 1128.92 198.632 1128.92 200.04V256.968C1128.92 258.344 1128.6 259.368 1127.96 260.04C1127.32 260.68 1126.3 261 1124.89 261ZM1168.38 261C1167.03 261 1166.03 260.664 1165.35 259.992C1164.68 259.32 1164.35 258.312 1164.35 256.968V204.072H1145.72C1144.38 204.072 1143.37 203.736 1142.7 203.064C1142.03 202.392 1141.69 201.384 1141.69 200.04C1141.69 198.696 1142.03 197.688 1142.7 197.016C1143.37 196.344 1144.38 196.008 1145.72 196.008H1191.03C1192.38 196.008 1193.39 196.344 1194.06 197.016C1194.73 197.688 1195.07 198.696 1195.07 200.04C1195.07 201.384 1194.73 202.392 1194.06 203.064C1193.39 203.736 1192.38 204.072 1191.03 204.072H1172.41V256.968C1172.41 258.248 1172.06 259.24 1171.35 259.944C1170.68 260.648 1169.69 261 1168.38 261ZM1211.89 261C1210.84 261 1209.89 260.6 1209.06 259.8C1208.26 258.968 1207.86 258.024 1207.86 256.968V199.944C1207.86 198.888 1208.26 197.96 1209.06 197.16C1209.89 196.328 1210.84 195.912 1211.89 195.912C1212.95 195.912 1213.88 196.328 1214.68 197.16C1215.51 197.96 1215.92 198.888 1215.92 199.944V224.04H1255.09V199.944C1255.09 198.888 1255.49 197.96 1256.29 197.16C1257.09 196.328 1258.04 195.912 1259.12 195.912C1260.18 195.912 1261.11 196.328 1261.91 197.16C1262.74 197.96 1263.16 198.888 1263.16 199.944V256.968C1263.16 258.024 1262.74 258.968 1261.91 259.8C1261.11 260.6 1260.18 261 1259.12 261C1258.04 261 1257.09 260.6 1256.29 259.8C1255.49 258.968 1255.09 258.024 1255.09 256.968V232.104H1215.92V256.968C1215.92 258.024 1215.51 258.968 1214.68 259.8C1213.88 260.6 1212.95 261 1211.89 261ZM1317.36 261C1314.67 261 1313.33 259.656 1313.33 256.968V199.944C1313.33 197.256 1314.67 195.912 1317.36 195.912H1340.5C1348.85 195.912 1354.99 197.896 1358.93 201.864C1362.9 205.8 1364.88 211.944 1364.88 220.296V236.616C1364.88 244.968 1362.91 251.128 1358.98 255.096C1355.07 259.032 1348.91 261 1340.5 261H1317.36ZM1321.39 252.936H1340.5C1344.59 252.936 1347.82 252.44 1350.19 251.448C1352.59 250.424 1354.29 248.728 1355.28 246.36C1356.3 243.96 1356.82 240.712 1356.82 236.616V220.296C1356.82 216.232 1356.3 213.016 1355.28 210.648C1354.29 208.248 1352.59 206.536 1350.19 205.512C1347.82 204.488 1344.59 203.976 1340.5 203.976H1321.39V252.936ZM1386.55 261C1383.86 261 1382.52 259.656 1382.52 256.968V199.944C1382.52 197.256 1383.86 195.912 1386.55 195.912C1388.31 195.912 1389.78 196.776 1390.96 198.504L1413.62 232.584L1411.89 232.872L1434.74 198.504C1435.83 196.776 1437.46 195.912 1439.64 195.912C1441.81 195.912 1442.9 197.256 1442.9 199.944V256.968C1442.9 259.656 1441.56 261 1438.87 261C1436.18 261 1434.84 259.656 1434.84 256.968V208.008L1437.33 208.872L1417.17 238.536C1415.99 240.264 1414.36 241.128 1412.28 241.128C1410.84 241.128 1409.52 240.264 1408.34 238.536L1388.18 208.872L1390.58 209.544V256.968C1390.58 259.656 1389.24 261 1386.55 261ZM1466.89 261C1465.52 261 1464.49 260.68 1463.82 260.04C1463.18 259.368 1462.86 258.344 1462.86 256.968V200.04C1462.86 198.632 1463.18 197.608 1463.82 196.968C1464.49 196.328 1465.52 196.008 1466.89 196.008C1468.3 196.008 1469.32 196.328 1469.96 196.968C1470.6 197.608 1470.92 198.632 1470.92 200.04V256.968C1470.92 258.344 1470.6 259.368 1469.96 260.04C1469.32 260.68 1468.3 261 1466.89 261ZM1510.38 261C1509.03 261 1508.03 260.664 1507.35 259.992C1506.68 259.32 1506.35 258.312 1506.35 256.968V204.072H1487.72C1486.38 204.072 1485.37 203.736 1484.7 203.064C1484.03 202.392 1483.69 201.384 1483.69 200.04C1483.69 198.696 1484.03 197.688 1484.7 197.016C1485.37 196.344 1486.38 196.008 1487.72 196.008H1533.03C1534.38 196.008 1535.39 196.344 1536.06 197.016C1536.73 197.688 1537.07 198.696 1537.07 200.04C1537.07 201.384 1536.73 202.392 1536.06 203.064C1535.39 203.736 1534.38 204.072 1533.03 204.072H1514.41V256.968C1514.41 258.248 1514.06 259.24 1513.35 259.944C1512.68 260.648 1511.69 261 1510.38 261ZM1591.72 261.192C1590.66 261.864 1589.65 262.072 1588.69 261.816C1587.73 261.56 1586.92 260.904 1586.24 259.848L1571.36 235.08H1557.92V256.968C1557.92 259.656 1556.58 261 1553.89 261C1551.2 261 1549.86 259.656 1549.86 256.968V199.944C1549.86 197.256 1551.2 195.912 1553.89 195.912H1576.36C1582.21 195.912 1586.69 197.48 1589.8 200.616C1592.93 203.72 1594.5 208.2 1594.5 214.056V216.936C1594.5 222.024 1593.32 226.088 1590.95 229.128C1588.58 232.136 1585.16 234.008 1580.68 234.744L1593.25 255.72C1594.47 257.96 1593.96 259.784 1591.72 261.192ZM1557.92 227.016H1576.36C1580 227.016 1582.6 226.248 1584.13 224.712C1585.67 223.176 1586.44 220.584 1586.44 216.936V214.056C1586.44 210.44 1585.67 207.864 1584.13 206.328C1582.6 204.76 1580 203.976 1576.36 203.976H1557.92V227.016ZM1613.89 261C1612.52 261 1611.49 260.68 1610.82 260.04C1610.18 259.368 1609.86 258.344 1609.86 256.968V200.04C1609.86 198.632 1610.18 197.608 1610.82 196.968C1611.49 196.328 1612.52 196.008 1613.89 196.008C1615.3 196.008 1616.32 196.328 1616.96 196.968C1617.6 197.608 1617.92 198.632 1617.92 200.04V256.968C1617.92 258.344 1617.6 259.368 1616.96 260.04C1616.32 260.68 1615.3 261 1613.89 261ZM1641.92 261C1640.55 261 1639.52 260.68 1638.85 260.04C1638.21 259.368 1637.89 258.344 1637.89 256.968V200.04C1637.89 198.632 1638.21 197.608 1638.85 196.968C1639.52 196.328 1640.55 196.008 1641.92 196.008C1643.33 196.008 1644.35 196.328 1644.99 196.968C1645.63 197.608 1645.95 198.632 1645.95 200.04V256.968C1645.95 258.344 1645.63 259.368 1644.99 260.04C1644.35 260.68 1643.33 261 1641.92 261Z" fill="#FAFAFA"/>
<path d="M743.912 255.768L741.781 257.88L741.791 257.889L741.8 257.899L743.912 255.768ZM743.912 201.096L746.033 203.217L746.043 203.208L743.912 201.096ZM760.088 195.912L760.062 198.912L760.075 198.912H760.088V195.912ZM785.48 199.656L783.623 202.012L783.631 202.018L783.638 202.024L785.48 199.656ZM791 211.368L788.014 211.654L788.02 211.723L788.03 211.792L791 211.368ZM790.232 214.44L792.353 216.561L792.353 216.561L790.232 214.44ZM782.936 211.464L779.954 211.788L779.959 211.838L779.966 211.888L782.936 211.464ZM779.864 205.512L778.313 208.08L778.324 208.087L778.335 208.093L779.864 205.512ZM760.088 203.976L760.06 206.976L760.074 206.976H760.088V203.976ZM752.072 205.128L750.934 202.352L750.926 202.355L750.918 202.359L752.072 205.128ZM747.944 209.304L745.177 208.144L745.173 208.155L745.168 208.166L747.944 209.304ZM747.944 247.56L745.168 248.698L745.176 248.717L745.184 248.736L747.944 247.56ZM752.12 251.736L750.944 254.496L750.963 254.504L750.982 254.512L752.12 251.736ZM779.864 251.4L781.415 253.968L781.421 253.964L781.428 253.96L779.864 251.4ZM782.936 245.448L779.966 245.024L779.959 245.072L779.954 245.12L782.936 245.448ZM790.232 242.472L792.353 240.351L792.353 240.351L790.232 242.472ZM791 245.544L788.03 245.12L788.02 245.189L788.014 245.26L791 245.544ZM785.48 257.304L787.322 259.672L787.322 259.672L785.48 257.304ZM760.184 258C753.271 258 748.762 256.35 746.024 253.637L741.8 257.899C746.102 262.162 752.441 264 760.184 264V258ZM746.043 253.656C743.33 250.918 741.68 246.409 741.68 239.496H735.68C735.68 247.239 737.518 253.578 741.781 257.88L746.043 253.656ZM741.68 239.496V217.416H735.68V239.496H741.68ZM741.68 217.416C741.68 210.428 743.335 205.916 746.033 203.217L741.791 198.975C737.513 203.252 735.68 209.62 735.68 217.416H741.68ZM746.043 203.208C748.739 200.487 753.193 198.852 760.062 198.912L760.114 192.912C752.391 192.844 746.061 194.665 741.781 198.984L746.043 203.208ZM760.088 198.912H771.704V192.912H760.088V198.912ZM771.704 198.912C777.364 198.912 781.189 200.094 783.623 202.012L787.337 197.3C783.435 194.226 778.076 192.912 771.704 192.912V198.912ZM783.638 202.024C785.956 203.827 787.553 206.843 788.014 211.654L793.986 211.082C793.423 205.205 791.34 200.413 787.322 197.288L783.638 202.024ZM788.03 211.792C788.086 212.185 788.053 212.372 788.042 212.416C788.037 212.435 788.038 212.424 788.054 212.395C788.07 212.366 788.091 212.338 788.111 212.319L792.353 216.561C793.949 214.966 794.243 212.857 793.97 210.944L788.03 211.792ZM788.111 212.319C788.109 212.32 788.08 212.354 787.961 212.395C787.828 212.441 787.577 212.496 787.16 212.496V218.496C789.013 218.496 790.912 218.002 792.353 216.561L788.111 212.319ZM787.16 212.496C786.514 212.496 786.367 212.332 786.351 212.318C786.294 212.264 786.04 211.976 785.906 211.04L779.966 211.888C780.216 213.64 780.858 215.368 782.209 216.658C783.601 217.988 785.374 218.496 787.16 218.496V212.496ZM785.918 211.14C785.547 207.722 784.266 204.633 781.393 202.931L778.335 208.093C778.918 208.439 779.685 209.318 779.954 211.788L785.918 211.14ZM781.415 202.944C778.994 201.482 775.585 200.976 771.704 200.976V206.976C775.311 206.976 777.342 207.494 778.313 208.08L781.415 202.944ZM771.704 200.976H760.088V206.976H771.704V200.976ZM760.116 200.976C756.539 200.942 753.413 201.336 750.934 202.352L753.21 207.904C754.635 207.32 756.853 206.946 760.06 206.976L760.116 200.976ZM750.918 202.359C748.243 203.474 746.303 205.46 745.177 208.144L750.711 210.464C751.249 209.18 752.061 208.382 753.226 207.897L750.918 202.359ZM745.168 208.166C744.155 210.637 743.744 213.787 743.744 217.416H749.744C749.744 214.133 750.133 211.875 750.72 210.442L745.168 208.166ZM743.744 217.416V239.496H749.744V217.416H743.744ZM743.744 239.496C743.744 243.097 744.156 246.229 745.168 248.698L750.72 246.422C750.132 244.987 749.744 242.743 749.744 239.496H743.744ZM745.184 248.736C746.32 251.401 748.279 253.36 750.944 254.496L753.296 248.976C752.057 248.448 751.232 247.623 750.704 246.384L745.184 248.736ZM750.982 254.512C753.451 255.524 756.583 255.936 760.184 255.936V249.936C756.937 249.936 754.693 249.548 753.258 248.96L750.982 254.512ZM760.184 255.936H771.704V249.936H760.184V255.936ZM771.704 255.936C775.585 255.936 778.994 255.43 781.415 253.968L778.313 248.832C777.342 249.418 775.311 249.936 771.704 249.936V255.936ZM781.428 253.96C784.258 252.231 785.544 249.18 785.918 245.776L779.954 245.12C779.688 247.54 778.926 248.457 778.3 248.84L781.428 253.96ZM785.906 245.872C786.04 244.936 786.294 244.648 786.351 244.594C786.367 244.58 786.514 244.416 787.16 244.416V238.416C785.374 238.416 783.601 238.924 782.209 240.254C780.858 241.544 780.216 243.272 779.966 245.024L785.906 245.872ZM787.16 244.416C787.577 244.416 787.828 244.471 787.961 244.517C788.08 244.558 788.109 244.592 788.111 244.593L792.353 240.351C790.912 238.91 789.013 238.416 787.16 238.416V244.416ZM788.111 244.593C788.091 244.574 788.07 244.546 788.054 244.517C788.038 244.488 788.037 244.477 788.042 244.496C788.053 244.54 788.086 244.727 788.03 245.12L793.97 245.968C794.243 244.055 793.949 241.946 792.353 240.351L788.111 244.593ZM788.014 245.26C787.552 250.108 785.952 253.136 783.638 254.936L787.322 259.672C791.344 256.544 793.424 251.732 793.986 245.828L788.014 245.26ZM783.638 254.936C781.202 256.831 777.371 258 771.704 258V264C778.069 264 783.422 262.705 787.322 259.672L783.638 254.936ZM771.704 258H760.184V264H771.704V258ZM810.756 255.768L808.625 257.88L808.634 257.889L808.644 257.899L810.756 255.768ZM810.804 201.048L812.906 203.189L812.915 203.179L810.804 201.048ZM827.028 195.912L827.001 198.912L827.015 198.912H827.028V195.912ZM854.82 201.144L856.941 199.023L856.941 199.023L854.82 201.144ZM854.82 255.768L856.941 257.889L856.951 257.88L854.82 255.768ZM846.612 251.736L847.749 254.512L847.769 254.504L847.788 254.496L846.612 251.736ZM850.74 247.56L847.98 246.384L847.972 246.403L847.964 246.422L850.74 247.56ZM850.74 209.4L847.964 210.538L847.972 210.557L847.98 210.576L850.74 209.4ZM827.028 203.976L826.999 206.976L827.014 206.976H827.028V203.976ZM819.012 205.128L817.874 202.352L817.874 202.352L819.012 205.128ZM814.836 209.256L812.076 208.08L812.076 208.08L814.836 209.256ZM814.788 247.56L812.012 248.698L812.02 248.717L812.028 248.736L814.788 247.56ZM818.964 251.736L817.787 254.496L817.807 254.504L817.826 254.512L818.964 251.736ZM827.028 258C820.115 258 815.606 256.35 812.867 253.637L808.644 257.899C812.946 262.162 819.285 264 827.028 264V258ZM812.887 253.656C810.173 250.918 808.524 246.409 808.524 239.496H802.524C802.524 247.239 804.362 253.578 808.625 257.88L812.887 253.656ZM808.524 239.496V217.32H802.524V239.496H808.524ZM808.524 217.32C808.524 210.335 810.193 205.852 812.906 203.189L808.702 198.907C804.375 203.156 802.524 209.521 802.524 217.32H808.524ZM812.915 203.179C815.646 200.473 820.129 198.852 827.001 198.912L827.054 192.912C819.335 192.844 813.001 194.647 808.692 198.917L812.915 203.179ZM827.028 198.912H838.548V192.912H827.028V198.912ZM838.548 198.912C845.5 198.912 849.998 200.565 852.698 203.265L856.941 199.023C852.666 194.747 846.316 192.912 838.548 192.912V198.912ZM852.698 203.265C855.399 205.966 857.052 210.464 857.052 217.416H863.052C863.052 209.648 861.217 203.298 856.941 199.023L852.698 203.265ZM857.052 217.416V239.496H863.052V217.416H857.052ZM857.052 239.496C857.052 246.409 855.402 250.918 852.689 253.656L856.951 257.88C861.213 253.578 863.052 247.239 863.052 239.496H857.052ZM852.698 253.647C849.998 256.347 845.5 258 838.548 258V264C846.316 264 852.666 262.165 856.941 257.889L852.698 253.647ZM838.548 258H827.028V264H838.548V258ZM827.028 255.936H838.548V249.936H827.028V255.936ZM838.548 255.936C842.149 255.936 845.281 255.524 847.749 254.512L845.474 248.96C844.039 249.548 841.795 249.936 838.548 249.936V255.936ZM847.788 254.496C850.461 253.356 852.415 251.384 853.516 248.698L847.964 246.422C847.465 247.64 846.666 248.452 845.435 248.976L847.788 254.496ZM853.5 248.736C854.558 246.254 854.988 243.106 854.988 239.496H848.988C848.988 242.734 848.586 244.962 847.98 246.384L853.5 248.736ZM854.988 239.496V217.416H848.988V239.496H854.988ZM854.988 217.416C854.988 213.834 854.557 210.704 853.5 208.224L847.98 210.576C848.587 212 848.988 214.214 848.988 217.416H854.988ZM853.516 208.262C852.415 205.576 850.461 203.604 847.788 202.464L845.435 207.984C846.666 208.508 847.465 209.32 847.964 210.538L853.516 208.262ZM847.788 202.464C845.305 201.406 842.158 200.976 838.548 200.976V206.976C841.786 206.976 844.014 207.378 845.435 207.984L847.788 202.464ZM838.548 200.976H827.028V206.976H838.548V200.976ZM827.056 200.976C823.479 200.942 820.353 201.336 817.874 202.352L820.149 207.904C821.575 207.32 823.793 206.946 826.999 206.976L827.056 200.976ZM817.874 202.352C815.187 203.453 813.215 205.407 812.076 208.08L817.596 210.432C818.12 209.201 818.932 208.403 820.149 207.904L817.874 202.352ZM812.076 208.08C811.018 210.562 810.588 213.71 810.588 217.32H816.588C816.588 214.082 816.99 211.854 817.596 210.432L812.076 208.08ZM810.588 217.32V239.496H816.588V217.32H810.588ZM810.588 239.496C810.588 243.097 811 246.229 812.012 248.698L817.564 246.422C816.975 244.987 816.588 242.743 816.588 239.496H810.588ZM812.028 248.736C813.164 251.401 815.123 253.36 817.787 254.496L820.14 248.976C818.9 248.448 818.076 247.623 817.548 246.384L812.028 248.736ZM817.826 254.512C820.295 255.524 823.427 255.936 827.028 255.936V249.936C823.781 249.936 821.537 249.548 820.101 248.96L817.826 254.512ZM923.272 201.864L921.142 203.977L921.15 203.985L921.159 203.994L923.272 201.864ZM923.32 255.096L921.19 252.983L921.19 252.983L923.32 255.096ZM885.736 252.936H882.736V255.936H885.736V252.936ZM914.536 251.448L915.695 254.215L915.704 254.211L915.713 254.207L914.536 251.448ZM919.624 246.36L916.864 245.183L916.86 245.192L916.856 245.201L919.624 246.36ZM919.624 210.648L916.851 211.794L916.86 211.816L916.87 211.839L919.624 210.648ZM914.536 205.512L913.345 208.266L913.351 208.268L913.358 208.271L914.536 205.512ZM885.736 203.976V200.976H882.736V203.976H885.736ZM881.704 258C880.822 258 880.712 257.782 880.801 257.871C880.89 257.96 880.672 257.85 880.672 256.968H874.672C874.672 258.774 875.125 260.68 876.558 262.113C877.991 263.546 879.897 264 881.704 264V258ZM880.672 256.968V199.944H874.672V256.968H880.672ZM880.672 199.944C880.672 199.062 880.89 198.952 880.801 199.041C880.712 199.13 880.822 198.912 881.704 198.912V192.912C879.897 192.912 877.991 193.366 876.558 194.799C875.125 196.232 874.672 198.138 874.672 199.944H880.672ZM881.704 198.912H904.84V192.912H881.704V198.912ZM904.84 198.912C912.783 198.912 917.995 200.805 921.142 203.977L925.401 199.751C920.676 194.987 913.6 192.912 904.84 192.912V198.912ZM921.159 203.994C924.331 207.14 926.224 212.352 926.224 220.296H932.224C932.224 211.536 930.148 204.46 925.384 199.734L921.159 203.994ZM926.224 220.296V236.616H932.224V220.296H926.224ZM926.224 236.616C926.224 244.563 924.345 249.802 921.19 252.983L925.449 257.209C930.166 252.454 932.224 245.373 932.224 236.616H926.224ZM921.19 252.983C918.083 256.116 912.864 258 904.84 258V264C913.647 264 920.748 261.948 925.449 257.209L921.19 252.983ZM904.84 258H881.704V264H904.84V258ZM885.736 255.936H904.84V249.936H885.736V255.936ZM904.84 255.936C909.124 255.936 912.806 255.425 915.695 254.215L913.376 248.681C911.529 249.455 908.747 249.936 904.84 249.936V255.936ZM915.713 254.207C918.818 252.883 921.091 250.62 922.391 247.519L916.856 245.201C916.172 246.836 915.053 247.965 913.358 248.689L915.713 254.207ZM922.383 247.537C923.63 244.614 924.16 240.911 924.16 236.616H918.16C918.16 240.513 917.665 243.306 916.864 245.183L922.383 247.537ZM924.16 236.616V220.296H918.16V236.616H924.16ZM924.16 220.296C924.16 216.032 923.63 212.355 922.377 209.457L916.87 211.839C917.665 213.677 918.16 216.432 918.16 220.296H924.16ZM922.396 209.502C921.102 206.372 918.831 204.083 915.713 202.753L913.358 208.271C915.04 208.989 916.161 210.124 916.851 211.794L922.396 209.502ZM915.726 202.758C912.826 201.504 909.132 200.976 904.84 200.976V206.976C908.739 206.976 911.509 207.472 913.345 208.266L915.726 202.758ZM904.84 200.976H885.736V206.976H904.84V200.976ZM882.736 203.976V252.936H888.736V203.976H882.736ZM954.923 203.976V200.976H951.923V203.976H954.923ZM954.923 224.136H951.923V227.136H954.923V224.136ZM954.923 232.2V229.2H951.923V232.2H954.923ZM954.923 252.936H951.923V255.936H954.923V252.936ZM950.891 258C950.009 258 949.899 257.782 949.988 257.871C950.077 257.96 949.859 257.85 949.859 256.968H943.859C943.859 258.774 944.313 260.68 945.746 262.113C947.179 263.546 949.085 264 950.891 264V258ZM949.859 256.968V199.944H943.859V256.968H949.859ZM949.859 199.944C949.859 199.062 950.077 198.952 949.988 199.041C949.899 199.13 950.009 198.912 950.891 198.912V192.912C949.085 192.912 947.179 193.366 945.746 194.799C944.313 196.232 943.859 198.138 943.859 199.944H949.859ZM950.891 198.912H985.355V192.912H950.891V198.912ZM985.355 198.912C986.237 198.912 986.347 199.13 986.258 199.041C986.169 198.952 986.387 199.062 986.387 199.944H992.387C992.387 198.138 991.933 196.232 990.5 194.799C989.067 193.366 987.161 192.912 985.355 192.912V198.912ZM986.387 199.944C986.387 200.826 986.169 200.936 986.258 200.847C986.347 200.758 986.237 200.976 985.355 200.976V206.976C987.161 206.976 989.067 206.522 990.5 205.089C991.933 203.656 992.387 201.75 992.387 199.944H986.387ZM985.355 200.976H954.923V206.976H985.355V200.976ZM951.923 203.976V224.136H957.923V203.976H951.923ZM954.923 227.136H974.027V221.136H954.923V227.136ZM974.027 227.136C974.909 227.136 975.019 227.354 974.93 227.265C974.841 227.176 975.059 227.286 975.059 228.168H981.059C981.059 226.362 980.605 224.456 979.172 223.023C977.739 221.59 975.833 221.136 974.027 221.136V227.136ZM975.059 228.168C975.059 229.05 974.841 229.16 974.93 229.071C975.019 228.982 974.909 229.2 974.027 229.2V235.2C975.833 235.2 977.739 234.746 979.172 233.313C980.605 231.88 981.059 229.974 981.059 228.168H975.059ZM974.027 229.2H954.923V235.2H974.027V229.2ZM951.923 232.2V252.936H957.923V232.2H951.923ZM954.923 255.936H985.355V249.936H954.923V255.936ZM985.355 255.936C986.237 255.936 986.347 256.154 986.258 256.065C986.169 255.976 986.387 256.086 986.387 256.968H992.387C992.387 255.162 991.933 253.256 990.5 251.823C989.067 250.39 987.161 249.936 985.355 249.936V255.936ZM986.387 256.968C986.387 257.85 986.169 257.96 986.258 257.871C986.347 257.782 986.237 258 985.355 258V264C987.161 264 989.067 263.546 990.5 262.113C991.933 260.68 992.387 258.774 992.387 256.968H986.387ZM985.355 258H950.891V264H985.355V258ZM1045.11 257.544L1042.25 258.447L1042.26 258.457L1045.11 257.544ZM1027.35 201.288L1030.22 200.385L1030.21 200.385L1027.35 201.288ZM1027.88 197.64L1025.35 196.038L1025.33 196.062L1025.32 196.087L1027.88 197.64ZM1033.4 196.584L1031.64 199.01L1031.67 199.037L1031.71 199.063L1033.4 196.584ZM1034.94 198.888L1032.07 199.758L1032.07 199.772L1032.08 199.787L1034.94 198.888ZM1050.59 248.712V251.712H1054.67L1053.45 247.813L1050.59 248.712ZM1048.47 248.712L1045.6 247.846L1044.44 251.712H1048.47V248.712ZM1063.35 199.368L1060.49 198.491L1060.48 198.502L1063.35 199.368ZM1065.13 196.776L1063.47 194.28L1063.44 194.294L1063.42 194.309L1065.13 196.776ZM1072.38 199.368L1069.49 200.171L1069.5 200.203L1069.51 200.234L1072.38 199.368ZM1087.26 248.712V251.712H1091.3L1090.13 247.846L1087.26 248.712ZM1085.15 248.712L1082.28 247.813L1081.06 251.712H1085.15V248.712ZM1100.79 198.888L1097.95 197.939L1097.94 197.964L1097.93 197.989L1100.79 198.888ZM1102.28 196.632L1104 199.09L1104.01 199.081L1104.03 199.073L1102.28 196.632ZM1107.8 197.544L1105.42 199.366L1105.42 199.366L1107.8 197.544ZM1108.38 201.288L1105.52 200.378L1105.52 200.385L1108.38 201.288ZM1090.62 257.544L1093.46 258.493L1093.47 258.47L1093.48 258.447L1090.62 257.544ZM1081.98 257.544L1084.86 256.704L1084.85 256.681L1084.84 256.658L1081.98 257.544ZM1066.52 207.528V204.528H1062.46L1063.66 208.414L1066.52 207.528ZM1068.63 207.528L1071.5 208.419L1072.71 204.528H1068.63V207.528ZM1053.08 257.544L1050.22 256.653L1050.2 256.697L1050.19 256.741L1053.08 257.544ZM1051.64 260.136L1049.64 257.906L1049.61 257.932L1049.58 257.958L1051.64 260.136ZM1048.86 258C1048.75 258 1048.71 257.984 1048.71 257.982C1048.71 257.982 1048.68 257.976 1048.64 257.932C1048.52 257.826 1048.25 257.486 1047.97 256.631L1042.26 258.457C1042.72 259.906 1043.43 261.294 1044.57 262.34C1045.77 263.448 1047.25 264 1048.86 264V258ZM1047.98 256.641L1030.22 200.385L1024.49 202.191L1042.25 258.447L1047.98 256.641ZM1030.21 200.385C1030.12 200.092 1030.1 199.766 1030.45 199.193L1025.32 196.087C1024.19 197.946 1023.82 200.052 1024.49 202.191L1030.21 200.385ZM1030.42 199.242C1030.57 199.001 1030.68 198.927 1030.73 198.9C1030.78 198.873 1030.91 198.816 1031.19 198.816V192.816C1028.73 192.816 1026.66 193.95 1025.35 196.038L1030.42 199.242ZM1031.19 198.816C1031.25 198.816 1031.38 198.819 1031.64 199.01L1035.17 194.158C1034.02 193.325 1032.68 192.816 1031.19 192.816V198.816ZM1031.71 199.063C1031.72 199.068 1031.76 199.094 1031.82 199.184C1031.88 199.281 1031.98 199.458 1032.07 199.758L1037.81 198.018C1037.35 196.502 1036.51 195.072 1035.09 194.105L1031.71 199.063ZM1032.08 199.787L1047.72 249.611L1053.45 247.813L1037.8 197.989L1032.08 199.787ZM1050.59 245.712H1048.47V251.712H1050.59V245.712ZM1051.35 249.578L1066.23 200.234L1060.48 198.502L1045.6 247.846L1051.35 249.578ZM1066.22 200.245C1066.42 199.611 1066.66 199.365 1066.84 199.243L1063.42 194.309C1061.94 195.339 1061 196.821 1060.49 198.491L1066.22 200.245ZM1066.79 199.272C1067.25 198.971 1067.56 198.912 1067.77 198.912V192.912C1066.19 192.912 1064.74 193.429 1063.47 194.28L1066.79 199.272ZM1067.77 198.912C1068.09 198.912 1068.46 198.999 1068.93 199.3L1072.18 194.252C1070.85 193.401 1069.37 192.912 1067.77 192.912V198.912ZM1068.93 199.3C1069.13 199.428 1069.34 199.635 1069.49 200.171L1075.27 198.565C1074.78 196.797 1073.77 195.276 1072.18 194.252L1068.93 199.3ZM1069.51 200.234L1084.39 249.578L1090.13 247.846L1075.25 198.502L1069.51 200.234ZM1087.26 245.712H1085.15V251.712H1087.26V245.712ZM1088.01 249.611L1103.66 199.787L1097.93 197.989L1082.28 247.813L1088.01 249.611ZM1103.64 199.837C1103.87 199.14 1104.07 199.041 1104 199.09L1100.56 194.174C1099.21 195.119 1098.42 196.524 1097.95 197.939L1103.64 199.837ZM1104.03 199.073C1104.23 198.928 1104.35 198.912 1104.44 198.912V192.912C1103 192.912 1101.68 193.376 1100.54 194.191L1104.03 199.073ZM1104.44 198.912C1104.95 198.912 1105.17 199.045 1105.42 199.366L1110.19 195.722C1108.77 193.867 1106.75 192.912 1104.44 192.912V198.912ZM1105.42 199.366C1105.6 199.607 1105.7 199.818 1105.52 200.378L1111.24 202.198C1111.95 199.942 1111.67 197.657 1110.19 195.722L1105.42 199.366ZM1105.52 200.385L1087.76 256.641L1093.48 258.447L1111.24 202.191L1105.52 200.385ZM1087.77 256.595C1087.51 257.385 1087.23 257.699 1087.09 257.814C1086.99 257.896 1086.82 258 1086.39 258V264C1088.02 264 1089.58 263.528 1090.89 262.458C1092.15 261.421 1092.96 260.007 1093.46 258.493L1087.77 256.595ZM1086.39 258H1086.2V264H1086.39V258ZM1086.2 258C1085.69 258 1085.51 257.876 1085.44 257.814C1085.33 257.727 1085.08 257.458 1084.86 256.704L1079.1 258.384C1079.55 259.934 1080.34 261.393 1081.64 262.458C1082.97 263.548 1084.57 264 1086.2 264V258ZM1084.84 256.658L1069.39 206.642L1063.66 208.414L1079.11 258.43L1084.84 256.658ZM1066.52 210.528H1068.63V204.528H1066.52V210.528ZM1065.77 206.637L1050.22 256.653L1055.95 258.435L1071.5 208.419L1065.77 206.637ZM1050.19 256.741C1049.97 257.549 1049.72 257.833 1049.64 257.906L1053.65 262.366C1054.85 261.287 1055.56 259.843 1055.97 258.347L1050.19 256.741ZM1049.58 257.958C1049.66 257.883 1049.7 257.889 1049.6 257.919C1049.49 257.952 1049.26 258 1048.86 258V264C1050.5 264 1052.32 263.627 1053.71 262.314L1049.58 257.958ZM1121.82 260.04L1119.65 262.109L1119.7 262.162L1119.75 262.212L1121.82 260.04ZM1121.82 196.968L1119.75 194.796L1119.72 194.821L1119.7 194.847L1121.82 196.968ZM1127.96 196.968L1130.08 194.847L1130.08 194.847L1127.96 196.968ZM1127.96 260.04L1130.08 262.161L1130.11 262.135L1130.14 262.109L1127.96 260.04ZM1124.89 258C1123.92 258 1123.78 257.768 1123.89 257.868L1119.75 262.212C1121.2 263.592 1123.11 264 1124.89 264V258ZM1123.99 257.971C1124.09 258.075 1123.86 257.94 1123.86 256.968H1117.86C1117.86 258.748 1118.27 260.661 1119.65 262.109L1123.99 257.971ZM1123.86 256.968V200.04H1117.86V256.968H1123.86ZM1123.86 200.04C1123.86 199.55 1123.92 199.259 1123.96 199.111C1124 198.976 1124.02 199.008 1123.94 199.089L1119.7 194.847C1118.25 196.294 1117.86 198.267 1117.86 200.04H1123.86ZM1123.89 199.14C1123.78 199.24 1123.92 199.008 1124.89 199.008V193.008C1123.11 193.008 1121.2 193.416 1119.75 194.796L1123.89 199.14ZM1124.89 199.008C1125.38 199.008 1125.67 199.065 1125.82 199.111C1125.95 199.154 1125.92 199.17 1125.84 199.089L1130.08 194.847C1128.64 193.399 1126.66 193.008 1124.89 193.008V199.008ZM1125.84 199.089C1125.76 199.008 1125.78 198.976 1125.82 199.111C1125.87 199.259 1125.92 199.55 1125.92 200.04H1131.92C1131.92 198.267 1131.53 196.294 1130.08 194.847L1125.84 199.089ZM1125.92 200.04V256.968H1131.92V200.04H1125.92ZM1125.92 256.968C1125.92 257.94 1125.69 258.075 1125.79 257.971L1130.14 262.109C1131.51 260.661 1131.92 258.748 1131.92 256.968H1125.92ZM1125.84 257.919C1125.92 257.838 1125.95 257.854 1125.82 257.897C1125.67 257.943 1125.38 258 1124.89 258V264C1126.66 264 1128.64 263.609 1130.08 262.161L1125.84 257.919ZM1165.35 259.992L1163.23 262.113L1163.23 262.113L1165.35 259.992ZM1164.35 204.072H1167.35V201.072H1164.35V204.072ZM1142.7 203.064L1140.58 205.185L1140.58 205.185L1142.7 203.064ZM1142.7 197.016L1144.82 199.137L1144.82 199.137L1142.7 197.016ZM1194.06 203.064L1196.18 205.185L1196.18 205.185L1194.06 203.064ZM1172.41 204.072V201.072H1169.41V204.072H1172.41ZM1171.35 259.944L1169.23 257.823L1169.21 257.847L1169.18 257.873L1171.35 259.944ZM1168.38 258C1167.5 258 1167.39 257.782 1167.48 257.871L1163.23 262.113C1164.67 263.546 1166.57 264 1168.38 264V258ZM1167.48 257.871C1167.56 257.96 1167.35 257.85 1167.35 256.968H1161.35C1161.35 258.774 1161.8 260.68 1163.23 262.113L1167.48 257.871ZM1167.35 256.968V204.072H1161.35V256.968H1167.35ZM1164.35 201.072H1145.72V207.072H1164.35V201.072ZM1145.72 201.072C1144.84 201.072 1144.73 200.854 1144.82 200.943L1140.58 205.185C1142.01 206.618 1143.92 207.072 1145.72 207.072V201.072ZM1144.82 200.943C1144.91 201.032 1144.69 200.922 1144.69 200.04H1138.69C1138.69 201.846 1139.14 203.752 1140.58 205.185L1144.82 200.943ZM1144.69 200.04C1144.69 199.158 1144.91 199.048 1144.82 199.137L1140.58 194.895C1139.14 196.328 1138.69 198.234 1138.69 200.04H1144.69ZM1144.82 199.137C1144.73 199.226 1144.84 199.008 1145.72 199.008V193.008C1143.92 193.008 1142.01 193.462 1140.58 194.895L1144.82 199.137ZM1145.72 199.008H1191.03V193.008H1145.72V199.008ZM1191.03 199.008C1191.92 199.008 1192.03 199.226 1191.94 199.137L1196.18 194.895C1194.75 193.462 1192.84 193.008 1191.03 193.008V199.008ZM1191.94 199.137C1191.85 199.048 1192.07 199.158 1192.07 200.04H1198.07C1198.07 198.234 1197.61 196.328 1196.18 194.895L1191.94 199.137ZM1192.07 200.04C1192.07 200.922 1191.85 201.032 1191.94 200.943L1196.18 205.185C1197.61 203.752 1198.07 201.846 1198.07 200.04H1192.07ZM1191.94 200.943C1192.03 200.854 1191.92 201.072 1191.03 201.072V207.072C1192.84 207.072 1194.75 206.618 1196.18 205.185L1191.94 200.943ZM1191.03 201.072H1172.41V207.072H1191.03V201.072ZM1169.41 204.072V256.968H1175.41V204.072H1169.41ZM1169.41 256.968C1169.41 257.338 1169.36 257.556 1169.32 257.669C1169.28 257.769 1169.25 257.804 1169.23 257.823L1173.48 262.065C1174.89 260.65 1175.41 258.806 1175.41 256.968H1169.41ZM1169.18 257.873C1169.2 257.858 1169.19 257.877 1169.1 257.909C1169 257.946 1168.77 258 1168.38 258V264C1170.21 264 1172.11 263.497 1173.52 262.015L1169.18 257.873ZM1209.06 259.8L1206.9 261.879L1206.94 261.922L1206.98 261.962L1209.06 259.8ZM1209.06 197.16L1211.18 199.281L1211.18 199.281L1209.06 197.16ZM1214.68 197.16L1212.51 199.239L1212.55 199.282L1212.6 199.322L1214.68 197.16ZM1215.92 224.04H1212.92V227.04H1215.92V224.04ZM1255.09 224.04V227.04H1258.09V224.04H1255.09ZM1256.29 197.16L1258.41 199.281L1258.43 199.261L1258.45 199.239L1256.29 197.16ZM1261.91 197.16L1259.74 199.239L1259.79 199.282L1259.83 199.322L1261.91 197.16ZM1261.91 259.8L1264.03 261.921L1264.03 261.921L1261.91 259.8ZM1256.29 259.8L1254.13 261.879L1254.15 261.901L1254.17 261.921L1256.29 259.8ZM1255.09 232.104H1258.09V229.104H1255.09V232.104ZM1215.92 232.104V229.104H1212.92V232.104H1215.92ZM1214.68 259.8L1216.8 261.921L1216.8 261.921L1214.68 259.8ZM1211.89 258C1211.69 258 1211.47 257.955 1211.14 257.638L1206.98 261.962C1208.31 263.245 1209.98 264 1211.89 264V258ZM1211.22 257.721C1210.9 257.391 1210.86 257.173 1210.86 256.968H1204.86C1204.86 258.875 1205.61 260.545 1206.9 261.879L1211.22 257.721ZM1210.86 256.968V199.944H1204.86V256.968H1210.86ZM1210.86 199.944C1210.86 199.744 1210.9 199.563 1211.18 199.281L1206.94 195.039C1205.62 196.357 1204.86 198.032 1204.86 199.944H1210.86ZM1211.18 199.281C1211.52 198.942 1211.72 198.912 1211.89 198.912V192.912C1209.95 192.912 1208.26 193.714 1206.94 195.039L1211.18 199.281ZM1211.89 198.912C1212.05 198.912 1212.22 198.935 1212.51 199.239L1216.84 195.081C1215.53 193.721 1213.84 192.912 1211.89 192.912V198.912ZM1212.6 199.322C1212.9 199.615 1212.92 199.784 1212.92 199.944H1218.92C1218.92 197.992 1218.11 196.305 1216.75 194.997L1212.6 199.322ZM1212.92 199.944V224.04H1218.92V199.944H1212.92ZM1215.92 227.04H1255.09V221.04H1215.92V227.04ZM1258.09 224.04V199.944H1252.09V224.04H1258.09ZM1258.09 199.944C1258.09 199.744 1258.13 199.563 1258.41 199.281L1254.17 195.039C1252.85 196.357 1252.09 198.032 1252.09 199.944H1258.09ZM1258.45 199.239C1258.73 198.956 1258.9 198.912 1259.12 198.912V192.912C1257.17 192.912 1255.46 193.7 1254.13 195.081L1258.45 199.239ZM1259.12 198.912C1259.28 198.912 1259.45 198.935 1259.74 199.239L1264.07 195.081C1262.76 193.721 1261.08 192.912 1259.12 192.912V198.912ZM1259.83 199.322C1260.13 199.615 1260.16 199.784 1260.16 199.944H1266.16C1266.16 197.992 1265.35 196.305 1263.99 194.998L1259.83 199.322ZM1260.16 199.944V256.968H1266.16V199.944H1260.16ZM1260.16 256.968C1260.16 257.134 1260.13 257.339 1259.79 257.679L1264.03 261.921C1265.35 260.597 1266.16 258.914 1266.16 256.968H1260.16ZM1259.79 257.679C1259.5 257.961 1259.32 258 1259.12 258V264C1261.04 264 1262.71 263.239 1264.03 261.921L1259.79 257.679ZM1259.12 258C1258.87 258 1258.67 257.941 1258.41 257.679L1254.17 261.921C1255.51 263.259 1257.2 264 1259.12 264V258ZM1258.45 257.721C1258.14 257.391 1258.09 257.173 1258.09 256.968H1252.09C1252.09 258.875 1252.85 260.545 1254.13 261.879L1258.45 257.721ZM1258.09 256.968V232.104H1252.09V256.968H1258.09ZM1255.09 229.104H1215.92V235.104H1255.09V229.104ZM1212.92 232.104V256.968H1218.92V232.104H1212.92ZM1212.92 256.968C1212.92 257.134 1212.89 257.339 1212.55 257.679L1216.8 261.921C1218.12 260.597 1218.92 258.914 1218.92 256.968H1212.92ZM1212.55 257.679C1212.27 257.961 1212.09 258 1211.89 258V264C1213.8 264 1215.48 263.239 1216.8 261.921L1212.55 257.679ZM1358.93 201.864L1356.8 203.977L1356.81 203.985L1356.82 203.994L1358.93 201.864ZM1358.98 255.096L1356.85 252.983L1356.85 252.983L1358.98 255.096ZM1321.39 252.936H1318.39V255.936H1321.39V252.936ZM1350.19 251.448L1351.35 254.215L1351.36 254.211L1351.37 254.207L1350.19 251.448ZM1355.28 246.36L1352.52 245.183L1352.52 245.192L1352.51 245.201L1355.28 246.36ZM1355.28 210.648L1352.51 211.794L1352.52 211.816L1352.53 211.839L1355.28 210.648ZM1350.19 205.512L1349 208.266L1349.01 208.268L1349.01 208.271L1350.19 205.512ZM1321.39 203.976V200.976H1318.39V203.976H1321.39ZM1317.36 258C1316.48 258 1316.37 257.782 1316.46 257.871C1316.55 257.96 1316.33 257.85 1316.33 256.968H1310.33C1310.33 258.774 1310.78 260.68 1312.21 262.113C1313.65 263.546 1315.55 264 1317.36 264V258ZM1316.33 256.968V199.944H1310.33V256.968H1316.33ZM1316.33 199.944C1316.33 199.062 1316.55 198.952 1316.46 199.041C1316.37 199.13 1316.48 198.912 1317.36 198.912V192.912C1315.55 192.912 1313.65 193.366 1312.21 194.799C1310.78 196.232 1310.33 198.138 1310.33 199.944H1316.33ZM1317.36 198.912H1340.5V192.912H1317.36V198.912ZM1340.5 198.912C1348.44 198.912 1353.65 200.805 1356.8 203.977L1361.06 199.751C1356.33 194.987 1349.26 192.912 1340.5 192.912V198.912ZM1356.82 203.994C1359.99 207.14 1361.88 212.352 1361.88 220.296H1367.88C1367.88 211.536 1365.8 204.46 1361.04 199.734L1356.82 203.994ZM1361.88 220.296V236.616H1367.88V220.296H1361.88ZM1361.88 236.616C1361.88 244.563 1360 249.802 1356.85 252.983L1361.11 257.209C1365.82 252.454 1367.88 245.373 1367.88 236.616H1361.88ZM1356.85 252.983C1353.74 256.116 1348.52 258 1340.5 258V264C1349.3 264 1356.4 261.948 1361.11 257.209L1356.85 252.983ZM1340.5 258H1317.36V264H1340.5V258ZM1321.39 255.936H1340.5V249.936H1321.39V255.936ZM1340.5 255.936C1344.78 255.936 1348.46 255.425 1351.35 254.215L1349.03 248.681C1347.19 249.455 1344.4 249.936 1340.5 249.936V255.936ZM1351.37 254.207C1354.47 252.883 1356.75 250.62 1358.05 247.519L1352.51 245.201C1351.83 246.836 1350.71 247.965 1349.01 248.689L1351.37 254.207ZM1358.04 247.537C1359.29 244.614 1359.82 240.911 1359.82 236.616H1353.82C1353.82 240.513 1353.32 243.306 1352.52 245.183L1358.04 247.537ZM1359.82 236.616V220.296H1353.82V236.616H1359.82ZM1359.82 220.296C1359.82 216.032 1359.29 212.355 1358.03 209.457L1352.53 211.839C1353.32 213.677 1353.82 216.432 1353.82 220.296H1359.82ZM1358.05 209.502C1356.76 206.372 1354.49 204.083 1351.37 202.753L1349.01 208.271C1350.7 208.989 1351.82 210.124 1352.51 211.794L1358.05 209.502ZM1351.38 202.758C1348.48 201.504 1344.79 200.976 1340.5 200.976V206.976C1344.4 206.976 1347.16 207.472 1349 208.266L1351.38 202.758ZM1340.5 200.976H1321.39V206.976H1340.5V200.976ZM1318.39 203.976V252.936H1324.39V203.976H1318.39ZM1390.96 198.504L1393.46 196.843L1393.45 196.826L1393.44 196.808L1390.96 198.504ZM1413.62 232.584L1414.11 235.543L1418.68 234.781L1416.12 230.923L1413.62 232.584ZM1411.89 232.872L1409.39 231.211L1405.57 236.968L1412.38 235.831L1411.89 232.872ZM1434.74 198.504L1437.24 200.165L1437.26 200.134L1437.28 200.102L1434.74 198.504ZM1434.84 208.008L1435.82 205.173L1431.84 203.795V208.008H1434.84ZM1437.33 208.872L1439.81 210.558L1442.01 207.318L1438.31 206.037L1437.33 208.872ZM1417.17 238.536L1419.65 240.232L1419.65 240.222L1417.17 238.536ZM1408.34 238.536L1405.86 240.222L1405.86 240.232L1408.34 238.536ZM1388.18 208.872L1388.99 205.983L1381.08 203.77L1385.7 210.558L1388.18 208.872ZM1390.58 209.544H1393.58V207.269L1391.39 206.655L1390.58 209.544ZM1386.55 258C1385.67 258 1385.56 257.782 1385.64 257.871C1385.73 257.96 1385.52 257.85 1385.52 256.968H1379.52C1379.52 258.774 1379.97 260.68 1381.4 262.113C1382.83 263.546 1384.74 264 1386.55 264V258ZM1385.52 256.968V199.944H1379.52V256.968H1385.52ZM1385.52 199.944C1385.52 199.062 1385.73 198.952 1385.64 199.041C1385.56 199.13 1385.67 198.912 1386.55 198.912V192.912C1384.74 192.912 1382.83 193.366 1381.4 194.799C1379.97 196.232 1379.52 198.138 1379.52 199.944H1385.52ZM1386.55 198.912C1387.12 198.912 1387.74 199.11 1388.49 200.2L1393.44 196.808C1391.82 194.442 1389.49 192.912 1386.55 192.912V198.912ZM1388.46 200.165L1411.12 234.245L1416.12 230.923L1393.46 196.843L1388.46 200.165ZM1413.13 229.625L1411.4 229.913L1412.38 235.831L1414.11 235.543L1413.13 229.625ZM1414.39 234.533L1437.24 200.165L1432.24 196.843L1409.39 231.211L1414.39 234.533ZM1437.28 200.102C1437.77 199.313 1438.41 198.912 1439.64 198.912V192.912C1436.51 192.912 1433.88 194.239 1432.2 196.906L1437.28 200.102ZM1439.64 198.912C1439.88 198.912 1439.95 198.95 1439.92 198.938C1439.87 198.919 1439.8 198.87 1439.75 198.808C1439.71 198.758 1439.75 198.779 1439.8 198.962C1439.85 199.15 1439.9 199.465 1439.9 199.944H1445.9C1445.9 198.273 1445.57 196.464 1444.41 195.032C1443.16 193.48 1441.37 192.912 1439.64 192.912V198.912ZM1439.9 199.944V256.968H1445.9V199.944H1439.9ZM1439.9 256.968C1439.9 257.85 1439.68 257.96 1439.77 257.871C1439.86 257.782 1439.75 258 1438.87 258V264C1440.67 264 1442.58 263.546 1444.01 262.113C1445.45 260.68 1445.9 258.774 1445.9 256.968H1439.9ZM1438.87 258C1437.99 258 1437.88 257.782 1437.96 257.871C1438.05 257.96 1437.84 257.85 1437.84 256.968H1431.84C1431.84 258.774 1432.29 260.68 1433.72 262.113C1435.15 263.546 1437.06 264 1438.87 264V258ZM1437.84 256.968V208.008H1431.84V256.968H1437.84ZM1433.85 210.843L1436.35 211.707L1438.31 206.037L1435.82 205.173L1433.85 210.843ZM1434.85 207.186L1414.69 236.85L1419.65 240.222L1439.81 210.558L1434.85 207.186ZM1414.7 236.84C1414.07 237.759 1413.36 238.128 1412.28 238.128V244.128C1415.35 244.128 1417.91 242.769 1419.65 240.232L1414.7 236.84ZM1412.28 238.128C1412.22 238.128 1411.71 238.148 1410.81 236.84L1405.86 240.232C1407.34 242.38 1409.45 244.128 1412.28 244.128V238.128ZM1410.82 236.85L1390.66 207.186L1385.7 210.558L1405.86 240.222L1410.82 236.85ZM1387.37 211.761L1389.77 212.433L1391.39 206.655L1388.99 205.983L1387.37 211.761ZM1387.58 209.544V256.968H1393.58V209.544H1387.58ZM1387.58 256.968C1387.58 257.85 1387.36 257.96 1387.45 257.871C1387.54 257.782 1387.43 258 1386.55 258V264C1388.35 264 1390.26 263.546 1391.69 262.113C1393.13 260.68 1393.58 258.774 1393.58 256.968H1387.58ZM1463.82 260.04L1461.65 262.109L1461.7 262.162L1461.75 262.212L1463.82 260.04ZM1463.82 196.968L1461.75 194.796L1461.72 194.821L1461.7 194.847L1463.82 196.968ZM1469.96 196.968L1472.08 194.847L1472.08 194.847L1469.96 196.968ZM1469.96 260.04L1472.08 262.161L1472.11 262.135L1472.14 262.109L1469.96 260.04ZM1466.89 258C1465.92 258 1465.78 257.768 1465.89 257.868L1461.75 262.212C1463.2 263.592 1465.11 264 1466.89 264V258ZM1465.99 257.971C1466.09 258.075 1465.86 257.94 1465.86 256.968H1459.86C1459.86 258.748 1460.27 260.661 1461.65 262.109L1465.99 257.971ZM1465.86 256.968V200.04H1459.86V256.968H1465.86ZM1465.86 200.04C1465.86 199.55 1465.92 199.259 1465.96 199.111C1466 198.976 1466.02 199.008 1465.94 199.089L1461.7 194.847C1460.25 196.294 1459.86 198.267 1459.86 200.04H1465.86ZM1465.89 199.14C1465.78 199.24 1465.92 199.008 1466.89 199.008V193.008C1465.11 193.008 1463.2 193.416 1461.75 194.796L1465.89 199.14ZM1466.89 199.008C1467.38 199.008 1467.67 199.065 1467.82 199.111C1467.95 199.154 1467.92 199.17 1467.84 199.089L1472.08 194.847C1470.64 193.399 1468.66 193.008 1466.89 193.008V199.008ZM1467.84 199.089C1467.76 199.008 1467.78 198.976 1467.82 199.111C1467.87 199.259 1467.92 199.55 1467.92 200.04H1473.92C1473.92 198.267 1473.53 196.294 1472.08 194.847L1467.84 199.089ZM1467.92 200.04V256.968H1473.92V200.04H1467.92ZM1467.92 256.968C1467.92 257.94 1467.69 258.075 1467.79 257.971L1472.14 262.109C1473.51 260.661 1473.92 258.748 1473.92 256.968H1467.92ZM1467.84 257.919C1467.92 257.838 1467.95 257.854 1467.82 257.897C1467.67 257.943 1467.38 258 1466.89 258V264C1468.66 264 1470.64 263.609 1472.08 262.161L1467.84 257.919ZM1507.35 259.992L1505.23 262.113L1505.23 262.113L1507.35 259.992ZM1506.35 204.072H1509.35V201.072H1506.35V204.072ZM1484.7 203.064L1482.58 205.185L1482.58 205.185L1484.7 203.064ZM1484.7 197.016L1486.82 199.137L1486.82 199.137L1484.7 197.016ZM1536.06 203.064L1538.18 205.185L1538.18 205.185L1536.06 203.064ZM1514.41 204.072V201.072H1511.41V204.072H1514.41ZM1513.35 259.944L1511.23 257.823L1511.21 257.847L1511.18 257.873L1513.35 259.944ZM1510.38 258C1509.5 258 1509.39 257.782 1509.48 257.871L1505.23 262.113C1506.67 263.546 1508.57 264 1510.38 264V258ZM1509.48 257.871C1509.56 257.96 1509.35 257.85 1509.35 256.968H1503.35C1503.35 258.774 1503.8 260.68 1505.23 262.113L1509.48 257.871ZM1509.35 256.968V204.072H1503.35V256.968H1509.35ZM1506.35 201.072H1487.72V207.072H1506.35V201.072ZM1487.72 201.072C1486.84 201.072 1486.73 200.854 1486.82 200.943L1482.58 205.185C1484.01 206.618 1485.92 207.072 1487.72 207.072V201.072ZM1486.82 200.943C1486.91 201.032 1486.69 200.922 1486.69 200.04H1480.69C1480.69 201.846 1481.14 203.752 1482.58 205.185L1486.82 200.943ZM1486.69 200.04C1486.69 199.158 1486.91 199.048 1486.82 199.137L1482.58 194.895C1481.14 196.328 1480.69 198.234 1480.69 200.04H1486.69ZM1486.82 199.137C1486.73 199.226 1486.84 199.008 1487.72 199.008V193.008C1485.92 193.008 1484.01 193.462 1482.58 194.895L1486.82 199.137ZM1487.72 199.008H1533.03V193.008H1487.72V199.008ZM1533.03 199.008C1533.92 199.008 1534.03 199.226 1533.94 199.137L1538.18 194.895C1536.75 193.462 1534.84 193.008 1533.03 193.008V199.008ZM1533.94 199.137C1533.85 199.048 1534.07 199.158 1534.07 200.04H1540.07C1540.07 198.234 1539.61 196.328 1538.18 194.895L1533.94 199.137ZM1534.07 200.04C1534.07 200.922 1533.85 201.032 1533.94 200.943L1538.18 205.185C1539.61 203.752 1540.07 201.846 1540.07 200.04H1534.07ZM1533.94 200.943C1534.03 200.854 1533.92 201.072 1533.03 201.072V207.072C1534.84 207.072 1536.75 206.618 1538.18 205.185L1533.94 200.943ZM1533.03 201.072H1514.41V207.072H1533.03V201.072ZM1511.41 204.072V256.968H1517.41V204.072H1511.41ZM1511.41 256.968C1511.41 257.338 1511.36 257.556 1511.32 257.669C1511.28 257.769 1511.25 257.804 1511.23 257.823L1515.48 262.065C1516.89 260.65 1517.41 258.806 1517.41 256.968H1511.41ZM1511.18 257.873C1511.2 257.858 1511.19 257.877 1511.1 257.909C1511 257.946 1510.77 258 1510.38 258V264C1512.21 264 1514.11 263.497 1515.52 262.015L1511.18 257.873ZM1591.72 261.192L1590.12 258.652L1590.11 258.657L1590.1 258.661L1591.72 261.192ZM1588.69 261.816L1589.46 258.917L1589.46 258.917L1588.69 261.816ZM1586.24 259.848L1583.67 261.393L1583.69 261.426L1583.71 261.459L1586.24 259.848ZM1571.36 235.08L1573.93 233.535L1573.06 232.08H1571.36V235.08ZM1557.92 235.08V232.08H1554.92V235.08H1557.92ZM1589.8 200.616L1587.66 202.726L1587.67 202.737L1587.68 202.748L1589.8 200.616ZM1590.95 229.128L1593.3 230.984L1593.31 230.978L1593.31 230.972L1590.95 229.128ZM1580.68 234.744L1580.19 231.784L1575.83 232.5L1578.1 236.287L1580.68 234.744ZM1593.25 255.72L1595.89 254.289L1595.86 254.232L1595.82 254.177L1593.25 255.72ZM1557.92 227.016H1554.92V230.016H1557.92V227.016ZM1584.13 206.328L1581.99 208.427L1582 208.438L1582.01 208.449L1584.13 206.328ZM1557.92 203.976V200.976H1554.92V203.976H1557.92ZM1590.1 258.661C1589.82 258.842 1589.64 258.898 1589.56 258.914C1589.5 258.927 1589.48 258.921 1589.46 258.917L1587.92 264.715C1589.89 265.24 1591.76 264.721 1593.33 263.723L1590.1 258.661ZM1589.46 258.917C1589.41 258.902 1589.15 258.83 1588.77 258.237L1583.71 261.459C1584.68 262.978 1586.06 264.218 1587.92 264.715L1589.46 258.917ZM1588.81 258.303L1573.93 233.535L1568.79 236.625L1583.67 261.393L1588.81 258.303ZM1571.36 232.08H1557.92V238.08H1571.36V232.08ZM1554.92 235.08V256.968H1560.92V235.08H1554.92ZM1554.92 256.968C1554.92 257.85 1554.7 257.96 1554.79 257.871C1554.88 257.782 1554.77 258 1553.89 258V264C1555.7 264 1557.6 263.546 1559.04 262.113C1560.47 260.68 1560.92 258.774 1560.92 256.968H1554.92ZM1553.89 258C1553.01 258 1552.9 257.782 1552.99 257.871C1553.08 257.96 1552.86 257.85 1552.86 256.968H1546.86C1546.86 258.774 1547.31 260.68 1548.75 262.113C1550.18 263.546 1552.08 264 1553.89 264V258ZM1552.86 256.968V199.944H1546.86V256.968H1552.86ZM1552.86 199.944C1552.86 199.062 1553.08 198.952 1552.99 199.041C1552.9 199.13 1553.01 198.912 1553.89 198.912V192.912C1552.08 192.912 1550.18 193.366 1548.75 194.799C1547.31 196.232 1546.86 198.138 1546.86 199.944H1552.86ZM1553.89 198.912H1576.36V192.912H1553.89V198.912ZM1576.36 198.912C1581.68 198.912 1585.29 200.327 1587.66 202.726L1591.93 198.506C1588.09 194.633 1582.74 192.912 1576.36 192.912V198.912ZM1587.68 202.748C1590.08 205.123 1591.5 208.729 1591.5 214.056H1597.5C1597.5 207.671 1595.78 202.317 1591.91 198.484L1587.68 202.748ZM1591.5 214.056V216.936H1597.5V214.056H1591.5ZM1591.5 216.936C1591.5 221.57 1590.42 224.919 1588.58 227.284L1593.31 230.972C1596.21 227.257 1597.5 222.478 1597.5 216.936H1591.5ZM1588.59 227.272C1586.77 229.585 1584.07 231.145 1580.19 231.784L1581.16 237.704C1586.24 236.871 1590.39 234.687 1593.3 230.984L1588.59 227.272ZM1578.1 236.287L1590.68 257.263L1595.82 254.177L1583.25 233.201L1578.1 236.287ZM1590.61 257.151C1590.8 257.489 1590.86 257.713 1590.88 257.834C1590.89 257.892 1590.89 257.926 1590.89 257.94C1590.89 257.953 1590.89 257.957 1590.89 257.957C1590.89 257.957 1590.89 257.967 1590.88 257.989C1590.86 258.012 1590.84 258.054 1590.79 258.113C1590.68 258.236 1590.48 258.424 1590.12 258.652L1593.31 263.732C1594.81 262.789 1596.14 261.449 1596.67 259.579C1597.2 257.685 1596.74 255.852 1595.89 254.289L1590.61 257.151ZM1557.92 230.016H1576.36V224.016H1557.92V230.016ZM1576.36 230.016C1580.29 230.016 1583.87 229.211 1586.25 226.833L1582.01 222.591C1581.32 223.285 1579.72 224.016 1576.36 224.016V230.016ZM1586.25 226.833C1588.63 224.455 1589.44 220.87 1589.44 216.936H1583.44C1583.44 220.298 1582.7 221.897 1582.01 222.591L1586.25 226.833ZM1589.44 216.936V214.056H1583.44V216.936H1589.44ZM1589.44 214.056C1589.44 210.145 1588.63 206.581 1586.25 204.207L1582.01 208.449C1582.71 209.147 1583.44 210.735 1583.44 214.056H1589.44ZM1586.27 204.229C1583.9 201.802 1580.3 200.976 1576.36 200.976V206.976C1579.7 206.976 1581.29 207.718 1581.99 208.427L1586.27 204.229ZM1576.36 200.976H1557.92V206.976H1576.36V200.976ZM1554.92 203.976V227.016H1560.92V203.976H1554.92ZM1610.82 260.04L1608.65 262.109L1608.7 262.162L1608.75 262.212L1610.82 260.04ZM1610.82 196.968L1608.75 194.796L1608.72 194.821L1608.7 194.847L1610.82 196.968ZM1616.96 196.968L1619.08 194.847L1619.08 194.847L1616.96 196.968ZM1616.96 260.04L1619.08 262.161L1619.11 262.135L1619.14 262.109L1616.96 260.04ZM1613.89 258C1612.92 258 1612.78 257.768 1612.89 257.868L1608.75 262.212C1610.2 263.592 1612.11 264 1613.89 264V258ZM1612.99 257.971C1613.09 258.075 1612.86 257.94 1612.86 256.968H1606.86C1606.86 258.748 1607.27 260.661 1608.65 262.109L1612.99 257.971ZM1612.86 256.968V200.04H1606.86V256.968H1612.86ZM1612.86 200.04C1612.86 199.55 1612.92 199.259 1612.96 199.111C1613 198.976 1613.02 199.008 1612.94 199.089L1608.7 194.847C1607.25 196.294 1606.86 198.267 1606.86 200.04H1612.86ZM1612.89 199.14C1612.78 199.24 1612.92 199.008 1613.89 199.008V193.008C1612.11 193.008 1610.2 193.416 1608.75 194.796L1612.89 199.14ZM1613.89 199.008C1614.38 199.008 1614.67 199.065 1614.82 199.111C1614.95 199.154 1614.92 199.17 1614.84 199.089L1619.08 194.847C1617.64 193.399 1615.66 193.008 1613.89 193.008V199.008ZM1614.84 199.089C1614.76 199.008 1614.78 198.976 1614.82 199.111C1614.87 199.259 1614.92 199.55 1614.92 200.04H1620.92C1620.92 198.267 1620.53 196.294 1619.08 194.847L1614.84 199.089ZM1614.92 200.04V256.968H1620.92V200.04H1614.92ZM1614.92 256.968C1614.92 257.94 1614.69 258.075 1614.79 257.971L1619.14 262.109C1620.51 260.661 1620.92 258.748 1620.92 256.968H1614.92ZM1614.84 257.919C1614.92 257.838 1614.95 257.854 1614.82 257.897C1614.67 257.943 1614.38 258 1613.89 258V264C1615.66 264 1617.64 263.609 1619.08 262.161L1614.84 257.919ZM1638.85 260.04L1636.68 262.109L1636.73 262.162L1636.78 262.212L1638.85 260.04ZM1638.85 196.968L1636.78 194.796L1636.75 194.821L1636.73 194.847L1638.85 196.968ZM1644.99 196.968L1647.12 194.847L1647.12 194.847L1644.99 196.968ZM1644.99 260.04L1647.12 262.161L1647.14 262.135L1647.17 262.109L1644.99 260.04ZM1641.92 258C1640.95 258 1640.81 257.768 1640.92 257.868L1636.78 262.212C1638.23 263.592 1640.14 264 1641.92 264V258ZM1641.02 257.971C1641.12 258.075 1640.89 257.94 1640.89 256.968H1634.89C1634.89 258.748 1635.3 260.661 1636.68 262.109L1641.02 257.971ZM1640.89 256.968V200.04H1634.89V256.968H1640.89ZM1640.89 200.04C1640.89 199.55 1640.95 199.259 1640.99 199.111C1641.04 198.976 1641.05 199.008 1640.97 199.089L1636.73 194.847C1635.28 196.294 1634.89 198.267 1634.89 200.04H1640.89ZM1640.92 199.14C1640.81 199.24 1640.95 199.008 1641.92 199.008V193.008C1640.14 193.008 1638.23 193.416 1636.78 194.796L1640.92 199.14ZM1641.92 199.008C1642.41 199.008 1642.7 199.065 1642.85 199.111C1642.99 199.154 1642.95 199.17 1642.87 199.089L1647.12 194.847C1645.67 193.399 1643.7 193.008 1641.92 193.008V199.008ZM1642.87 199.089C1642.79 199.008 1642.81 198.976 1642.85 199.111C1642.9 199.259 1642.95 199.55 1642.95 200.04H1648.95C1648.95 198.267 1648.56 196.294 1647.12 194.847L1642.87 199.089ZM1642.95 200.04V256.968H1648.95V200.04H1642.95ZM1642.95 256.968C1642.95 257.94 1642.72 258.075 1642.82 257.971L1647.17 262.109C1648.55 260.661 1648.95 258.748 1648.95 256.968H1642.95ZM1642.87 257.919C1642.95 257.838 1642.99 257.854 1642.85 257.897C1642.7 257.943 1642.41 258 1641.92 258V264C1643.7 264 1645.67 263.609 1647.12 262.161L1642.87 257.919Z" fill="#FAFAFA" mask="url(#path-2-outside-1_2006_2)"/>
</g>
<defs>
<radialGradient id="paint0_radial_2006_2" cx="0" cy="0" r="1" gradientUnits="userSpaceOnUse" gradientTransform="translate(1193.5 225) scale(1193.5 720)">
<stop stop-color="#93C5FD"/>
<stop offset="1" stop-color="#1D4ED8"/>
</radialGradient>
<clipPath id="clip0_2006_2">
<rect width="2387" height="450" fill="white"/>
</clipPath>
</defs>
</svg>
